<mxfile>
    <diagram id="M4vruVyRiMkwd9TWjfhX" name="1.3">
        <mxGraphModel dx="1138" dy="680" grid="1" gridSize="10" guides="1" tooltips="1" connect="1" arrows="1" fold="1" page="1" pageScale="1" pageWidth="827" pageHeight="1169" math="0" shadow="0">
            <root>
                <mxCell id="0"/>
                <mxCell id="1" parent="0"/>
                <mxCell id="23" style="edgeStyle=orthogonalEdgeStyle;rounded=0;orthogonalLoop=1;jettySize=auto;html=1;entryX=0.5;entryY=0;entryDx=0;entryDy=0;" parent="1" source="2" target="3" edge="1">
                    <mxGeometry relative="1" as="geometry"/>
                </mxCell>
                <mxCell id="2" value="func (a,b)" style="ellipse;whiteSpace=wrap;html=1;" parent="1" vertex="1">
                    <mxGeometry x="300" y="10" width="120" height="50" as="geometry"/>
                </mxCell>
                <mxCell id="7" style="edgeStyle=orthogonalEdgeStyle;rounded=0;orthogonalLoop=1;jettySize=auto;html=1;entryX=0.582;entryY=-0.045;entryDx=0;entryDy=0;entryPerimeter=0;" parent="1" source="3" target="6" edge="1">
                    <mxGeometry relative="1" as="geometry">
                        <mxPoint x="452" y="170" as="targetPoint"/>
                        <Array as="points">
                            <mxPoint x="462" y="155"/>
                            <mxPoint x="462" y="170"/>
                        </Array>
                    </mxGeometry>
                </mxCell>
                <mxCell id="9" style="edgeStyle=orthogonalEdgeStyle;rounded=0;orthogonalLoop=1;jettySize=auto;html=1;" parent="1" source="3" edge="1">
                    <mxGeometry relative="1" as="geometry">
                        <mxPoint x="282" y="240" as="targetPoint"/>
                    </mxGeometry>
                </mxCell>
                <mxCell id="3" value="a == b" style="rhombus;whiteSpace=wrap;html=1;" parent="1" vertex="1">
                    <mxGeometry x="312" y="110" width="95" height="90" as="geometry"/>
                </mxCell>
                <mxCell id="4" value="Yes" style="text;html=1;strokeColor=none;fillColor=none;align=center;verticalAlign=middle;whiteSpace=wrap;rounded=0;" parent="1" vertex="1">
                    <mxGeometry x="382" y="100" width="40" height="20" as="geometry"/>
                </mxCell>
                <mxCell id="5" value="No" style="text;html=1;strokeColor=none;fillColor=none;align=center;verticalAlign=middle;whiteSpace=wrap;rounded=0;" parent="1" vertex="1">
                    <mxGeometry x="302" y="100" width="40" height="20" as="geometry"/>
                </mxCell>
                <mxCell id="28" style="edgeStyle=orthogonalEdgeStyle;rounded=0;orthogonalLoop=1;jettySize=auto;html=1;entryX=1;entryY=0.5;entryDx=0;entryDy=0;exitX=1;exitY=0.5;exitDx=0;exitDy=0;" parent="1" source="6" target="24" edge="1">
                    <mxGeometry relative="1" as="geometry"/>
                </mxCell>
                <mxCell id="6" value="return str(a)" style="rounded=0;whiteSpace=wrap;html=1;" parent="1" vertex="1">
                    <mxGeometry x="407" y="200" width="95" height="30" as="geometry"/>
                </mxCell>
                <mxCell id="13" style="edgeStyle=orthogonalEdgeStyle;rounded=0;orthogonalLoop=1;jettySize=auto;html=1;entryX=0.5;entryY=0;entryDx=0;entryDy=0;exitX=1;exitY=0.5;exitDx=0;exitDy=0;" parent="1" source="8" target="12" edge="1">
                    <mxGeometry relative="1" as="geometry"/>
                </mxCell>
                <mxCell id="22" style="edgeStyle=orthogonalEdgeStyle;rounded=0;orthogonalLoop=1;jettySize=auto;html=1;entryX=0.5;entryY=0;entryDx=0;entryDy=0;exitX=0;exitY=0.5;exitDx=0;exitDy=0;" parent="1" source="8" target="18" edge="1">
                    <mxGeometry relative="1" as="geometry"/>
                </mxCell>
                <mxCell id="8" value="a &amp;gt; b" style="rhombus;whiteSpace=wrap;html=1;" parent="1" vertex="1">
                    <mxGeometry x="242" y="240" width="80" height="80" as="geometry"/>
                </mxCell>
                <mxCell id="10" value="Yes" style="text;html=1;strokeColor=none;fillColor=none;align=center;verticalAlign=middle;whiteSpace=wrap;rounded=0;" parent="1" vertex="1">
                    <mxGeometry x="302" y="230" width="40" height="20" as="geometry"/>
                </mxCell>
                <mxCell id="11" value="No" style="text;html=1;strokeColor=none;fillColor=none;align=center;verticalAlign=middle;whiteSpace=wrap;rounded=0;" parent="1" vertex="1">
                    <mxGeometry x="222" y="230" width="40" height="20" as="geometry"/>
                </mxCell>
                <mxCell id="29" style="edgeStyle=orthogonalEdgeStyle;rounded=0;orthogonalLoop=1;jettySize=auto;html=1;entryX=1;entryY=0.5;entryDx=0;entryDy=0;exitX=1;exitY=0.5;exitDx=0;exitDy=0;" parent="1" source="12" target="24" edge="1">
                    <mxGeometry relative="1" as="geometry"/>
                </mxCell>
                <mxCell id="12" value="&lt;font style=&quot;font-size: 10px&quot;&gt;return str(a),str( func(a-1,b))&lt;/font&gt;" style="rounded=0;whiteSpace=wrap;html=1;" parent="1" vertex="1">
                    <mxGeometry x="322" y="320" width="130" height="40" as="geometry"/>
                </mxCell>
                <mxCell id="17" style="edgeStyle=orthogonalEdgeStyle;rounded=0;orthogonalLoop=1;jettySize=auto;html=1;entryX=0.5;entryY=0;entryDx=0;entryDy=0;exitX=1;exitY=0.5;exitDx=0;exitDy=0;" parent="1" source="18" target="21" edge="1">
                    <mxGeometry relative="1" as="geometry"/>
                </mxCell>
                <mxCell id="25" style="edgeStyle=orthogonalEdgeStyle;rounded=0;orthogonalLoop=1;jettySize=auto;html=1;exitX=0;exitY=0.5;exitDx=0;exitDy=0;" parent="1" source="18" target="24" edge="1">
                    <mxGeometry relative="1" as="geometry"/>
                </mxCell>
                <mxCell id="18" value="a &amp;lt; b" style="rhombus;whiteSpace=wrap;html=1;" parent="1" vertex="1">
                    <mxGeometry x="242" y="420" width="80" height="80" as="geometry"/>
                </mxCell>
                <mxCell id="19" value="Yes" style="text;html=1;strokeColor=none;fillColor=none;align=center;verticalAlign=middle;whiteSpace=wrap;rounded=0;" parent="1" vertex="1">
                    <mxGeometry x="302" y="410" width="40" height="20" as="geometry"/>
                </mxCell>
                <mxCell id="20" value="No" style="text;html=1;strokeColor=none;fillColor=none;align=center;verticalAlign=middle;whiteSpace=wrap;rounded=0;" parent="1" vertex="1">
                    <mxGeometry x="222" y="410" width="40" height="20" as="geometry"/>
                </mxCell>
                <mxCell id="26" style="edgeStyle=orthogonalEdgeStyle;rounded=0;orthogonalLoop=1;jettySize=auto;html=1;entryX=1;entryY=0.5;entryDx=0;entryDy=0;" parent="1" source="21" target="24" edge="1">
                    <mxGeometry relative="1" as="geometry">
                        <Array as="points">
                            <mxPoint x="390" y="608"/>
                        </Array>
                    </mxGeometry>
                </mxCell>
                <mxCell id="21" value="&lt;font style=&quot;font-size: 10px&quot;&gt;return str(a),str( func(a+1,b))&lt;/font&gt;" style="rounded=0;whiteSpace=wrap;html=1;" parent="1" vertex="1">
                    <mxGeometry x="322" y="500" width="130" height="40" as="geometry"/>
                </mxCell>
                <mxCell id="24" value="End" style="ellipse;whiteSpace=wrap;html=1;" parent="1" vertex="1">
                    <mxGeometry x="262" y="585" width="108" height="45" as="geometry"/>
                </mxCell>
            </root>
        </mxGraphModel>
    </diagram>
    <diagram id="WvWvbBL4U0hH1dh7uA5E" name="1.4.Akkerman function">
        &#xa;        &#xa;&#xa;
        <mxGraphModel dx="1138" dy="680" grid="1" gridSize="10" guides="1" tooltips="1" connect="1" arrows="1" fold="1" page="1" pageScale="1" pageWidth="827" pageHeight="1169" math="0" shadow="0">
            &#xa;            &#xa;&#xa;
            <root>
                &#xa;                &#xa;&#xa;
                <mxCell id="ZDaxiKDmxWVDDlFm1XxA-0"/>
                &#xa;                &#xa;&#xa;
                <mxCell id="ZDaxiKDmxWVDDlFm1XxA-1" parent="ZDaxiKDmxWVDDlFm1XxA-0"/>
                &#xa;                &#xa;&#xa;
                <mxCell id="xDS9WT2REHHh9zGj4nHK-0" style="edgeStyle=orthogonalEdgeStyle;rounded=0;orthogonalLoop=1;jettySize=auto;html=1;entryX=0.5;entryY=0;entryDx=0;entryDy=0;" parent="ZDaxiKDmxWVDDlFm1XxA-1" source="xDS9WT2REHHh9zGj4nHK-1" target="xDS9WT2REHHh9zGj4nHK-4" edge="1">
                    &#xa;                    &#xa;&#xa;
                    <mxGeometry relative="1" as="geometry"/>
                    &#xa;                    &#xa;&#xa;
                </mxCell>
                &#xa;                &#xa;&#xa;
                <mxCell id="xDS9WT2REHHh9zGj4nHK-1" value="Ackermann func&lt;br&gt;(Afunc)&lt;br&gt;(m,n)" style="ellipse;whiteSpace=wrap;html=1;" parent="ZDaxiKDmxWVDDlFm1XxA-1" vertex="1">
                    &#xa;                    &#xa;&#xa;
                    <mxGeometry x="300" y="80" width="120" height="50" as="geometry"/>
                    &#xa;                    &#xa;&#xa;
                </mxCell>
                &#xa;                &#xa;&#xa;
                <mxCell id="xDS9WT2REHHh9zGj4nHK-2" style="edgeStyle=orthogonalEdgeStyle;rounded=0;orthogonalLoop=1;jettySize=auto;html=1;entryX=0.582;entryY=-0.045;entryDx=0;entryDy=0;entryPerimeter=0;" parent="ZDaxiKDmxWVDDlFm1XxA-1" source="xDS9WT2REHHh9zGj4nHK-4" target="xDS9WT2REHHh9zGj4nHK-8" edge="1">
                    &#xa;                    &#xa;&#xa;
                    <mxGeometry relative="1" as="geometry">
                        &#xa;                        &#xa;&#xa;
                        <mxPoint x="452" y="240" as="targetPoint"/>
                        &#xa;                        &#xa;&#xa;
                        <Array as="points">
                            &#xa;                            &#xa;&#xa;
                            <mxPoint x="462" y="225"/>
                            &#xa;                            &#xa;&#xa;
                            <mxPoint x="462" y="240"/>
                            &#xa;                            &#xa;&#xa;
                        </Array>
                        &#xa;                        &#xa;&#xa;
                    </mxGeometry>
                    &#xa;                    &#xa;&#xa;
                </mxCell>
                &#xa;                &#xa;&#xa;
                <mxCell id="xDS9WT2REHHh9zGj4nHK-3" style="edgeStyle=orthogonalEdgeStyle;rounded=0;orthogonalLoop=1;jettySize=auto;html=1;" parent="ZDaxiKDmxWVDDlFm1XxA-1" source="xDS9WT2REHHh9zGj4nHK-4" edge="1">
                    &#xa;                    &#xa;&#xa;
                    <mxGeometry relative="1" as="geometry">
                        &#xa;                        &#xa;&#xa;
                        <mxPoint x="282" y="310" as="targetPoint"/>
                        &#xa;                        &#xa;&#xa;
                    </mxGeometry>
                    &#xa;                    &#xa;&#xa;
                </mxCell>
                &#xa;                &#xa;&#xa;
                <mxCell id="xDS9WT2REHHh9zGj4nHK-4" value="m == 0" style="rhombus;whiteSpace=wrap;html=1;" parent="ZDaxiKDmxWVDDlFm1XxA-1" vertex="1">
                    &#xa;                    &#xa;&#xa;
                    <mxGeometry x="312" y="180" width="95" height="90" as="geometry"/>
                    &#xa;                    &#xa;&#xa;
                </mxCell>
                &#xa;                &#xa;&#xa;
                <mxCell id="xDS9WT2REHHh9zGj4nHK-5" value="Yes" style="text;html=1;strokeColor=none;fillColor=none;align=center;verticalAlign=middle;whiteSpace=wrap;rounded=0;" parent="ZDaxiKDmxWVDDlFm1XxA-1" vertex="1">
                    &#xa;                    &#xa;&#xa;
                    <mxGeometry x="382" y="170" width="40" height="20" as="geometry"/>
                    &#xa;                    &#xa;&#xa;
                </mxCell>
                &#xa;                &#xa;&#xa;
                <mxCell id="xDS9WT2REHHh9zGj4nHK-6" value="No" style="text;html=1;strokeColor=none;fillColor=none;align=center;verticalAlign=middle;whiteSpace=wrap;rounded=0;" parent="ZDaxiKDmxWVDDlFm1XxA-1" vertex="1">
                    &#xa;                    &#xa;&#xa;
                    <mxGeometry x="302" y="170" width="40" height="20" as="geometry"/>
                    &#xa;                    &#xa;&#xa;
                </mxCell>
                &#xa;                &#xa;&#xa;
                <mxCell id="xDS9WT2REHHh9zGj4nHK-7" style="edgeStyle=orthogonalEdgeStyle;rounded=0;orthogonalLoop=1;jettySize=auto;html=1;entryX=1;entryY=0.5;entryDx=0;entryDy=0;exitX=1;exitY=0.5;exitDx=0;exitDy=0;" parent="ZDaxiKDmxWVDDlFm1XxA-1" source="xDS9WT2REHHh9zGj4nHK-8" target="xDS9WT2REHHh9zGj4nHK-23" edge="1">
                    &#xa;                    &#xa;&#xa;
                    <mxGeometry relative="1" as="geometry"/>
                    &#xa;                    &#xa;&#xa;
                </mxCell>
                &#xa;                &#xa;&#xa;
                <mxCell id="xDS9WT2REHHh9zGj4nHK-8" value="return n+1" style="rounded=0;whiteSpace=wrap;html=1;" parent="ZDaxiKDmxWVDDlFm1XxA-1" vertex="1">
                    &#xa;                    &#xa;&#xa;
                    <mxGeometry x="407" y="270" width="95" height="30" as="geometry"/>
                    &#xa;                    &#xa;&#xa;
                </mxCell>
                &#xa;                &#xa;&#xa;
                <mxCell id="xDS9WT2REHHh9zGj4nHK-9" style="edgeStyle=orthogonalEdgeStyle;rounded=0;orthogonalLoop=1;jettySize=auto;html=1;entryX=0.5;entryY=0;entryDx=0;entryDy=0;exitX=1;exitY=0.5;exitDx=0;exitDy=0;" parent="ZDaxiKDmxWVDDlFm1XxA-1" source="xDS9WT2REHHh9zGj4nHK-11" target="xDS9WT2REHHh9zGj4nHK-15" edge="1">
                    &#xa;                    &#xa;&#xa;
                    <mxGeometry relative="1" as="geometry"/>
                    &#xa;                    &#xa;&#xa;
                </mxCell>
                &#xa;                &#xa;&#xa;
                <mxCell id="xDS9WT2REHHh9zGj4nHK-25" style="edgeStyle=orthogonalEdgeStyle;rounded=0;orthogonalLoop=1;jettySize=auto;html=1;" parent="ZDaxiKDmxWVDDlFm1XxA-1" source="xDS9WT2REHHh9zGj4nHK-11" edge="1">
                    &#xa;                    &#xa;&#xa;
                    <mxGeometry relative="1" as="geometry">
                        &#xa;                        &#xa;&#xa;
                        <mxPoint x="220" y="470" as="targetPoint"/>
                        &#xa;                        &#xa;&#xa;
                    </mxGeometry>
                    &#xa;                    &#xa;&#xa;
                </mxCell>
                &#xa;                &#xa;&#xa;
                <mxCell id="xDS9WT2REHHh9zGj4nHK-11" value="m &amp;gt; 0&lt;br&gt;and&lt;br&gt;n == 0" style="rhombus;whiteSpace=wrap;html=1;" parent="ZDaxiKDmxWVDDlFm1XxA-1" vertex="1">
                    &#xa;                    &#xa;&#xa;
                    <mxGeometry x="242" y="310" width="80" height="80" as="geometry"/>
                    &#xa;                    &#xa;&#xa;
                </mxCell>
                &#xa;                &#xa;&#xa;
                <mxCell id="xDS9WT2REHHh9zGj4nHK-12" value="Yes" style="text;html=1;strokeColor=none;fillColor=none;align=center;verticalAlign=middle;whiteSpace=wrap;rounded=0;" parent="ZDaxiKDmxWVDDlFm1XxA-1" vertex="1">
                    &#xa;                    &#xa;&#xa;
                    <mxGeometry x="302" y="300" width="40" height="20" as="geometry"/>
                    &#xa;                    &#xa;&#xa;
                </mxCell>
                &#xa;                &#xa;&#xa;
                <mxCell id="xDS9WT2REHHh9zGj4nHK-13" value="No" style="text;html=1;strokeColor=none;fillColor=none;align=center;verticalAlign=middle;whiteSpace=wrap;rounded=0;" parent="ZDaxiKDmxWVDDlFm1XxA-1" vertex="1">
                    &#xa;                    &#xa;&#xa;
                    <mxGeometry x="222" y="300" width="40" height="20" as="geometry"/>
                    &#xa;                    &#xa;&#xa;
                </mxCell>
                &#xa;                &#xa;&#xa;
                <mxCell id="xDS9WT2REHHh9zGj4nHK-14" style="edgeStyle=orthogonalEdgeStyle;rounded=0;orthogonalLoop=1;jettySize=auto;html=1;entryX=1;entryY=0.5;entryDx=0;entryDy=0;exitX=1;exitY=0.5;exitDx=0;exitDy=0;" parent="ZDaxiKDmxWVDDlFm1XxA-1" source="xDS9WT2REHHh9zGj4nHK-15" target="xDS9WT2REHHh9zGj4nHK-23" edge="1">
                    &#xa;                    &#xa;&#xa;
                    <mxGeometry relative="1" as="geometry"/>
                    &#xa;                    &#xa;&#xa;
                </mxCell>
                &#xa;                &#xa;&#xa;
                <mxCell id="xDS9WT2REHHh9zGj4nHK-15" value="&lt;font style=&quot;font-size: 10px&quot;&gt;return Afunc(m -1, 1)&lt;/font&gt;" style="rounded=0;whiteSpace=wrap;html=1;" parent="ZDaxiKDmxWVDDlFm1XxA-1" vertex="1">
                    &#xa;                    &#xa;&#xa;
                    <mxGeometry x="322" y="390" width="130" height="40" as="geometry"/>
                    &#xa;                    &#xa;&#xa;
                </mxCell>
                &#xa;                &#xa;&#xa;
                <mxCell id="xDS9WT2REHHh9zGj4nHK-18" value="m &amp;gt; 0&lt;br&gt;and&lt;br&gt;n &amp;gt; 0" style="rhombus;whiteSpace=wrap;html=1;" parent="ZDaxiKDmxWVDDlFm1XxA-1" vertex="1">
                    &#xa;                    &#xa;&#xa;
                    <mxGeometry x="60" y="480" width="80" height="80" as="geometry"/>
                    &#xa;                    &#xa;&#xa;
                </mxCell>
                &#xa;                &#xa;&#xa;
                <mxCell id="xDS9WT2REHHh9zGj4nHK-19" value="Yes" style="text;html=1;strokeColor=none;fillColor=none;align=center;verticalAlign=middle;whiteSpace=wrap;rounded=0;" parent="ZDaxiKDmxWVDDlFm1XxA-1" vertex="1">
                    &#xa;                    &#xa;&#xa;
                    <mxGeometry x="120" y="470" width="40" height="20" as="geometry"/>
                    &#xa;                    &#xa;&#xa;
                </mxCell>
                &#xa;                &#xa;&#xa;
                <mxCell id="xDS9WT2REHHh9zGj4nHK-20" value="No" style="text;html=1;strokeColor=none;fillColor=none;align=center;verticalAlign=middle;whiteSpace=wrap;rounded=0;" parent="ZDaxiKDmxWVDDlFm1XxA-1" vertex="1">
                    &#xa;                    &#xa;&#xa;
                    <mxGeometry x="40" y="470" width="40" height="20" as="geometry"/>
                    &#xa;                    &#xa;&#xa;
                </mxCell>
                &#xa;                &#xa;&#xa;
                <mxCell id="xDS9WT2REHHh9zGj4nHK-24" style="edgeStyle=orthogonalEdgeStyle;rounded=0;orthogonalLoop=1;jettySize=auto;html=1;entryX=0.5;entryY=0;entryDx=0;entryDy=0;" parent="ZDaxiKDmxWVDDlFm1XxA-1" source="xDS9WT2REHHh9zGj4nHK-22" target="xDS9WT2REHHh9zGj4nHK-23" edge="1">
                    &#xa;                    &#xa;&#xa;
                    <mxGeometry relative="1" as="geometry"/>
                    &#xa;                    &#xa;&#xa;
                </mxCell>
                &#xa;                &#xa;&#xa;
                <mxCell id="xDS9WT2REHHh9zGj4nHK-22" value="&lt;font style=&quot;font-size: 10px&quot;&gt;return Afunc(m -1 , Afunc(m, n -1))&lt;/font&gt;" style="rounded=0;whiteSpace=wrap;html=1;" parent="ZDaxiKDmxWVDDlFm1XxA-1" vertex="1">
                    &#xa;                    &#xa;&#xa;
                    <mxGeometry x="200" y="480" width="170" height="40" as="geometry"/>
                    &#xa;                    &#xa;&#xa;
                </mxCell>
                &#xa;                &#xa;&#xa;
                <mxCell id="xDS9WT2REHHh9zGj4nHK-23" value="End" style="ellipse;whiteSpace=wrap;html=1;" parent="ZDaxiKDmxWVDDlFm1XxA-1" vertex="1">
                    &#xa;                    &#xa;&#xa;
                    <mxGeometry x="262" y="655" width="108" height="45" as="geometry"/>
                    &#xa;                    &#xa;&#xa;
                </mxCell>
                &#xa;                &#xa;&#xa;
                <mxCell id="xDS9WT2REHHh9zGj4nHK-26" value="" style="endArrow=classic;html=1;exitX=0.687;exitY=0.868;exitDx=0;exitDy=0;exitPerimeter=0;" parent="ZDaxiKDmxWVDDlFm1XxA-1" source="xDS9WT2REHHh9zGj4nHK-18" edge="1">
                    &#xa;                    &#xa;&#xa;
                    <mxGeometry width="50" height="50" relative="1" as="geometry">
                        &#xa;                        &#xa;&#xa;
                        <mxPoint x="120" y="560" as="sourcePoint"/>
                        &#xa;                        &#xa;&#xa;
                        <mxPoint x="190" y="510" as="targetPoint"/>
                        &#xa;                        &#xa;&#xa;
                    </mxGeometry>
                    &#xa;                    &#xa;&#xa;
                </mxCell>
                &#xa;                &#xa;&#xa;
            </root>
            &#xa;            &#xa;&#xa;
        </mxGraphModel>
        &#xa;        &#xa;&#xa;
    </diagram>
    <diagram id="Q_7a5es64BrHsYmzT0rj" name="Euclidean_algorithm">
        &#xa;
        <mxGraphModel dx="885" dy="680" grid="1" gridSize="10" guides="1" tooltips="1" connect="1" arrows="1" fold="1" page="1" pageScale="1" pageWidth="827" pageHeight="1169" math="0" shadow="0">
            &#xa;
            <root>
                &#xa;
                <mxCell id="pAtoyhg9l4RPakUxPp27-0"/>
                &#xa;
                <mxCell id="pAtoyhg9l4RPakUxPp27-1" parent="pAtoyhg9l4RPakUxPp27-0"/>
                &#xa;
                <mxCell id="FoBWPcvAEHmcZkQ-fAAG-9" style="edgeStyle=orthogonalEdgeStyle;rounded=0;orthogonalLoop=1;jettySize=auto;html=1;entryX=0.5;entryY=0;entryDx=0;entryDy=0;" parent="pAtoyhg9l4RPakUxPp27-1" source="pAtoyhg9l4RPakUxPp27-2" target="FoBWPcvAEHmcZkQ-fAAG-1" edge="1">
                    &#xa;
                    <mxGeometry relative="1" as="geometry"/>
                    &#xa;
                </mxCell>
                &#xa;
                <mxCell id="pAtoyhg9l4RPakUxPp27-2" value="gcd ( m, n )" style="ellipse;whiteSpace=wrap;html=1;" parent="pAtoyhg9l4RPakUxPp27-1" vertex="1">
                    &#xa;
                    <mxGeometry x="330" y="50" width="120" height="50" as="geometry"/>
                    &#xa;
                </mxCell>
                &#xa;
                <mxCell id="FoBWPcvAEHmcZkQ-fAAG-8" style="edgeStyle=orthogonalEdgeStyle;rounded=0;orthogonalLoop=1;jettySize=auto;html=1;entryX=0.5;entryY=0;entryDx=0;entryDy=0;" parent="pAtoyhg9l4RPakUxPp27-1" source="FoBWPcvAEHmcZkQ-fAAG-1" target="FoBWPcvAEHmcZkQ-fAAG-4" edge="1">
                    &#xa;
                    <mxGeometry relative="1" as="geometry"/>
                    &#xa;
                </mxCell>
                &#xa;
                <mxCell id="FoBWPcvAEHmcZkQ-fAAG-11" style="edgeStyle=orthogonalEdgeStyle;rounded=0;orthogonalLoop=1;jettySize=auto;html=1;" parent="pAtoyhg9l4RPakUxPp27-1" source="FoBWPcvAEHmcZkQ-fAAG-1" target="FoBWPcvAEHmcZkQ-fAAG-12" edge="1">
                    &#xa;
                    <mxGeometry relative="1" as="geometry">
                        &#xa;
                        <mxPoint x="460" y="650" as="targetPoint"/>
                        &#xa;
                        <Array as="points">
                            &#xa;
                            <mxPoint x="610" y="195"/>
                            &#xa;
                            <mxPoint x="610" y="570"/>
                            &#xa;
                        </Array>
                        &#xa;
                    </mxGeometry>
                    &#xa;
                </mxCell>
                &#xa;
                <mxCell id="FoBWPcvAEHmcZkQ-fAAG-1" value="while&lt;br&gt;m != n" style="rhombus;whiteSpace=wrap;html=1;" parent="pAtoyhg9l4RPakUxPp27-1" vertex="1">
                    &#xa;
                    <mxGeometry x="342.5" y="150" width="95" height="90" as="geometry"/>
                    &#xa;
                </mxCell>
                &#xa;
                <mxCell id="FoBWPcvAEHmcZkQ-fAAG-2" value="Yes" style="text;html=1;strokeColor=none;fillColor=none;align=center;verticalAlign=middle;whiteSpace=wrap;rounded=0;" parent="pAtoyhg9l4RPakUxPp27-1" vertex="1">
                    &#xa;
                    <mxGeometry x="410" y="280" width="40" height="20" as="geometry"/>
                    &#xa;
                </mxCell>
                &#xa;
                <mxCell id="FoBWPcvAEHmcZkQ-fAAG-3" value="No" style="text;html=1;strokeColor=none;fillColor=none;align=center;verticalAlign=middle;whiteSpace=wrap;rounded=0;" parent="pAtoyhg9l4RPakUxPp27-1" vertex="1">
                    &#xa;
                    <mxGeometry x="330" y="280" width="40" height="20" as="geometry"/>
                    &#xa;
                </mxCell>
                &#xa;
                <mxCell id="FoBWPcvAEHmcZkQ-fAAG-7" style="edgeStyle=orthogonalEdgeStyle;rounded=0;orthogonalLoop=1;jettySize=auto;html=1;entryX=0.5;entryY=0;entryDx=0;entryDy=0;" parent="pAtoyhg9l4RPakUxPp27-1" source="FoBWPcvAEHmcZkQ-fAAG-4" target="FoBWPcvAEHmcZkQ-fAAG-5" edge="1">
                    &#xa;
                    <mxGeometry relative="1" as="geometry"/>
                    &#xa;
                </mxCell>
                &#xa;
                <mxCell id="FoBWPcvAEHmcZkQ-fAAG-10" style="edgeStyle=orthogonalEdgeStyle;rounded=0;orthogonalLoop=1;jettySize=auto;html=1;entryX=0.45;entryY=-0.033;entryDx=0;entryDy=0;entryPerimeter=0;" parent="pAtoyhg9l4RPakUxPp27-1" source="FoBWPcvAEHmcZkQ-fAAG-4" target="FoBWPcvAEHmcZkQ-fAAG-6" edge="1">
                    &#xa;
                    <mxGeometry relative="1" as="geometry"/>
                    &#xa;
                </mxCell>
                &#xa;
                <mxCell id="FoBWPcvAEHmcZkQ-fAAG-4" value="m &amp;gt; n" style="rhombus;whiteSpace=wrap;html=1;" parent="pAtoyhg9l4RPakUxPp27-1" vertex="1">
                    &#xa;
                    <mxGeometry x="342.5" y="280" width="95" height="90" as="geometry"/>
                    &#xa;
                </mxCell>
                &#xa;
                <mxCell id="FoBWPcvAEHmcZkQ-fAAG-17" style="edgeStyle=orthogonalEdgeStyle;rounded=0;orthogonalLoop=1;jettySize=auto;html=1;entryX=0;entryY=0.5;entryDx=0;entryDy=0;" parent="pAtoyhg9l4RPakUxPp27-1" source="FoBWPcvAEHmcZkQ-fAAG-5" target="FoBWPcvAEHmcZkQ-fAAG-1" edge="1">
                    &#xa;
                    <mxGeometry relative="1" as="geometry">
                        &#xa;
                        <mxPoint x="340" y="200" as="targetPoint"/>
                        &#xa;
                        <Array as="points">
                            &#xa;
                            <mxPoint x="510" y="500"/>
                            &#xa;
                            <mxPoint x="70" y="500"/>
                            &#xa;
                            <mxPoint x="70" y="195"/>
                            &#xa;
                        </Array>
                        &#xa;
                    </mxGeometry>
                    &#xa;
                </mxCell>
                &#xa;
                <mxCell id="FoBWPcvAEHmcZkQ-fAAG-5" value="m = m - n" style="rounded=0;whiteSpace=wrap;html=1;" parent="pAtoyhg9l4RPakUxPp27-1" vertex="1">
                    &#xa;
                    <mxGeometry x="450" y="400" width="120" height="60" as="geometry"/>
                    &#xa;
                </mxCell>
                &#xa;
                <mxCell id="FoBWPcvAEHmcZkQ-fAAG-16" style="edgeStyle=orthogonalEdgeStyle;rounded=0;orthogonalLoop=1;jettySize=auto;html=1;entryX=0;entryY=0.5;entryDx=0;entryDy=0;" parent="pAtoyhg9l4RPakUxPp27-1" source="FoBWPcvAEHmcZkQ-fAAG-6" target="FoBWPcvAEHmcZkQ-fAAG-1" edge="1">
                    &#xa;
                    <mxGeometry relative="1" as="geometry">
                        &#xa;
                        <mxPoint x="270" y="530" as="targetPoint"/>
                        &#xa;
                        <Array as="points">
                            &#xa;
                            <mxPoint x="270" y="500"/>
                            &#xa;
                            <mxPoint x="70" y="500"/>
                            &#xa;
                            <mxPoint x="70" y="195"/>
                            &#xa;
                        </Array>
                        &#xa;
                    </mxGeometry>
                    &#xa;
                </mxCell>
                &#xa;
                <mxCell id="FoBWPcvAEHmcZkQ-fAAG-6" value="n= n - m" style="rounded=0;whiteSpace=wrap;html=1;" parent="pAtoyhg9l4RPakUxPp27-1" vertex="1">
                    &#xa;
                    <mxGeometry x="210" y="400" width="120" height="60" as="geometry"/>
                    &#xa;
                </mxCell>
                &#xa;
                <mxCell id="FoBWPcvAEHmcZkQ-fAAG-19" style="edgeStyle=orthogonalEdgeStyle;rounded=0;orthogonalLoop=1;jettySize=auto;html=1;entryX=0.5;entryY=0;entryDx=0;entryDy=0;" parent="pAtoyhg9l4RPakUxPp27-1" source="FoBWPcvAEHmcZkQ-fAAG-12" target="FoBWPcvAEHmcZkQ-fAAG-18" edge="1">
                    &#xa;
                    <mxGeometry relative="1" as="geometry"/>
                    &#xa;
                </mxCell>
                &#xa;
                <mxCell id="FoBWPcvAEHmcZkQ-fAAG-12" value="return m" style="rounded=0;whiteSpace=wrap;html=1;" parent="pAtoyhg9l4RPakUxPp27-1" vertex="1">
                    &#xa;
                    <mxGeometry x="310" y="540" width="120" height="60" as="geometry"/>
                    &#xa;
                </mxCell>
                &#xa;
                <mxCell id="FoBWPcvAEHmcZkQ-fAAG-18" value="End" style="ellipse;whiteSpace=wrap;html=1;" parent="pAtoyhg9l4RPakUxPp27-1" vertex="1">
                    &#xa;
                    <mxGeometry x="305" y="640" width="130" height="50" as="geometry"/>
                    &#xa;
                </mxCell>
                &#xa;
            </root>
            &#xa;
        </mxGraphModel>
        &#xa;
    </diagram>
    <diagram name="Euclidean_algorithm_recursion" id="AwhQEXdf2wl_mJkQNsrn">
        <mxGraphModel dx="1138" dy="680" grid="1" gridSize="10" guides="1" tooltips="1" connect="1" arrows="1" fold="1" page="1" pageScale="1" pageWidth="827" pageHeight="1169" math="0" shadow="0">
            <root>
                <mxCell id="xmzUvvyBv9rUKXLdJyi6-0"/>
                <mxCell id="xmzUvvyBv9rUKXLdJyi6-1" parent="xmzUvvyBv9rUKXLdJyi6-0"/>
                <mxCell id="xmzUvvyBv9rUKXLdJyi6-2" style="edgeStyle=orthogonalEdgeStyle;rounded=0;orthogonalLoop=1;jettySize=auto;html=1;entryX=0.5;entryY=0;entryDx=0;entryDy=0;" parent="xmzUvvyBv9rUKXLdJyi6-1" source="xmzUvvyBv9rUKXLdJyi6-3" target="xmzUvvyBv9rUKXLdJyi6-6" edge="1">
                    <mxGeometry relative="1" as="geometry"/>
                </mxCell>
                <mxCell id="xmzUvvyBv9rUKXLdJyi6-3" value="gcd ( m, n )" style="ellipse;whiteSpace=wrap;html=1;" parent="xmzUvvyBv9rUKXLdJyi6-1" vertex="1">
                    <mxGeometry x="330" y="50" width="120" height="50" as="geometry"/>
                </mxCell>
                <mxCell id="xmzUvvyBv9rUKXLdJyi6-21" style="edgeStyle=orthogonalEdgeStyle;rounded=0;orthogonalLoop=1;jettySize=auto;html=1;entryX=0.5;entryY=0;entryDx=0;entryDy=0;" parent="xmzUvvyBv9rUKXLdJyi6-1" source="xmzUvvyBv9rUKXLdJyi6-6" target="xmzUvvyBv9rUKXLdJyi6-17" edge="1">
                    <mxGeometry relative="1" as="geometry"/>
                </mxCell>
                <mxCell id="xmzUvvyBv9rUKXLdJyi6-22" style="edgeStyle=orthogonalEdgeStyle;rounded=0;orthogonalLoop=1;jettySize=auto;html=1;entryX=0.5;entryY=0;entryDx=0;entryDy=0;" parent="xmzUvvyBv9rUKXLdJyi6-1" source="xmzUvvyBv9rUKXLdJyi6-6" target="xmzUvvyBv9rUKXLdJyi6-13" edge="1">
                    <mxGeometry relative="1" as="geometry"/>
                </mxCell>
                <mxCell id="xmzUvvyBv9rUKXLdJyi6-6" value="n == 0" style="rhombus;whiteSpace=wrap;html=1;" parent="xmzUvvyBv9rUKXLdJyi6-1" vertex="1">
                    <mxGeometry x="342.5" y="150" width="95" height="90" as="geometry"/>
                </mxCell>
                <mxCell id="xmzUvvyBv9rUKXLdJyi6-24" style="edgeStyle=orthogonalEdgeStyle;rounded=0;orthogonalLoop=1;jettySize=auto;html=1;entryX=0.5;entryY=0;entryDx=0;entryDy=0;" parent="xmzUvvyBv9rUKXLdJyi6-1" source="xmzUvvyBv9rUKXLdJyi6-13" target="xmzUvvyBv9rUKXLdJyi6-18" edge="1">
                    <mxGeometry relative="1" as="geometry"/>
                </mxCell>
                <mxCell id="xmzUvvyBv9rUKXLdJyi6-13" value="gcd ( n, m%n)" style="rounded=0;whiteSpace=wrap;html=1;" parent="xmzUvvyBv9rUKXLdJyi6-1" vertex="1">
                    <mxGeometry x="210" y="250" width="120" height="60" as="geometry"/>
                </mxCell>
                <mxCell id="xmzUvvyBv9rUKXLdJyi6-23" style="edgeStyle=orthogonalEdgeStyle;rounded=0;orthogonalLoop=1;jettySize=auto;html=1;" parent="xmzUvvyBv9rUKXLdJyi6-1" source="xmzUvvyBv9rUKXLdJyi6-17" target="xmzUvvyBv9rUKXLdJyi6-18" edge="1">
                    <mxGeometry relative="1" as="geometry"/>
                </mxCell>
                <mxCell id="xmzUvvyBv9rUKXLdJyi6-17" value="return m" style="rounded=0;whiteSpace=wrap;html=1;" parent="xmzUvvyBv9rUKXLdJyi6-1" vertex="1">
                    <mxGeometry x="470" y="220" width="120" height="60" as="geometry"/>
                </mxCell>
                <mxCell id="xmzUvvyBv9rUKXLdJyi6-18" value="End" style="ellipse;whiteSpace=wrap;html=1;" parent="xmzUvvyBv9rUKXLdJyi6-1" vertex="1">
                    <mxGeometry x="342.5" y="360" width="130" height="50" as="geometry"/>
                </mxCell>
                <mxCell id="xmzUvvyBv9rUKXLdJyi6-19" value="Yes" style="text;html=1;strokeColor=none;fillColor=none;align=center;verticalAlign=middle;whiteSpace=wrap;rounded=0;" parent="xmzUvvyBv9rUKXLdJyi6-1" vertex="1">
                    <mxGeometry x="410" y="150" width="40" height="20" as="geometry"/>
                </mxCell>
                <mxCell id="xmzUvvyBv9rUKXLdJyi6-20" value="No" style="text;html=1;strokeColor=none;fillColor=none;align=center;verticalAlign=middle;whiteSpace=wrap;rounded=0;" parent="xmzUvvyBv9rUKXLdJyi6-1" vertex="1">
                    <mxGeometry x="330" y="150" width="40" height="20" as="geometry"/>
                </mxCell>
            </root>
        </mxGraphModel>
    </diagram>
    <diagram name="Euclidean_algorithm_Loop" id="AZqCosPeiQ9cP8kBidhV">
        <mxGraphModel dx="1138" dy="680" grid="1" gridSize="10" guides="1" tooltips="1" connect="1" arrows="1" fold="1" page="1" pageScale="1" pageWidth="827" pageHeight="1169" math="0" shadow="0">
            <root>
                <mxCell id="Y0tLtC83ZistXatWVus2-0"/>
                <mxCell id="Y0tLtC83ZistXatWVus2-1" parent="Y0tLtC83ZistXatWVus2-0"/>
                <mxCell id="Y0tLtC83ZistXatWVus2-2" style="edgeStyle=orthogonalEdgeStyle;rounded=0;orthogonalLoop=1;jettySize=auto;html=1;entryX=0.5;entryY=0;entryDx=0;entryDy=0;" edge="1" parent="Y0tLtC83ZistXatWVus2-1" source="Y0tLtC83ZistXatWVus2-3" target="Y0tLtC83ZistXatWVus2-6">
                    <mxGeometry relative="1" as="geometry"/>
                </mxCell>
                <mxCell id="Y0tLtC83ZistXatWVus2-3" value="gcd ( m, n )" style="ellipse;whiteSpace=wrap;html=1;" vertex="1" parent="Y0tLtC83ZistXatWVus2-1">
                    <mxGeometry x="330" y="50" width="120" height="50" as="geometry"/>
                </mxCell>
                <mxCell id="Y0tLtC83ZistXatWVus2-16" style="edgeStyle=orthogonalEdgeStyle;rounded=0;orthogonalLoop=1;jettySize=auto;html=1;entryX=1;entryY=0.5;entryDx=0;entryDy=0;" edge="1" parent="Y0tLtC83ZistXatWVus2-1" source="Y0tLtC83ZistXatWVus2-6" target="Y0tLtC83ZistXatWVus2-8">
                    <mxGeometry relative="1" as="geometry">
                        <Array as="points">
                            <mxPoint x="530" y="195"/>
                            <mxPoint x="530" y="480"/>
                        </Array>
                    </mxGeometry>
                </mxCell>
                <mxCell id="Y0tLtC83ZistXatWVus2-6" value="While&lt;br&gt;n != 0" style="rhombus;whiteSpace=wrap;html=1;" vertex="1" parent="Y0tLtC83ZistXatWVus2-1">
                    <mxGeometry x="342.5" y="150" width="95" height="90" as="geometry"/>
                </mxCell>
                <mxCell id="Y0tLtC83ZistXatWVus2-17" style="edgeStyle=orthogonalEdgeStyle;rounded=0;orthogonalLoop=1;jettySize=auto;html=1;entryX=0.5;entryY=0;entryDx=0;entryDy=0;" edge="1" parent="Y0tLtC83ZistXatWVus2-1" source="Y0tLtC83ZistXatWVus2-8" target="Y0tLtC83ZistXatWVus2-11">
                    <mxGeometry relative="1" as="geometry"/>
                </mxCell>
                <mxCell id="Y0tLtC83ZistXatWVus2-8" value="return m" style="rounded=0;whiteSpace=wrap;html=1;" vertex="1" parent="Y0tLtC83ZistXatWVus2-1">
                    <mxGeometry x="340" y="450" width="120" height="60" as="geometry"/>
                </mxCell>
                <mxCell id="Y0tLtC83ZistXatWVus2-14" style="edgeStyle=orthogonalEdgeStyle;rounded=0;orthogonalLoop=1;jettySize=auto;html=1;entryX=0;entryY=0.5;entryDx=0;entryDy=0;" edge="1" parent="Y0tLtC83ZistXatWVus2-1" source="Y0tLtC83ZistXatWVus2-10" target="Y0tLtC83ZistXatWVus2-6">
                    <mxGeometry relative="1" as="geometry">
                        <Array as="points">
                            <mxPoint x="390" y="420"/>
                            <mxPoint x="310" y="420"/>
                            <mxPoint x="310" y="195"/>
                        </Array>
                    </mxGeometry>
                </mxCell>
                <mxCell id="Y0tLtC83ZistXatWVus2-10" value="m , n = n, m % n" style="rounded=0;whiteSpace=wrap;html=1;" vertex="1" parent="Y0tLtC83ZistXatWVus2-1">
                    <mxGeometry x="330" y="290" width="120" height="60" as="geometry"/>
                </mxCell>
                <mxCell id="Y0tLtC83ZistXatWVus2-11" value="End" style="ellipse;whiteSpace=wrap;html=1;" vertex="1" parent="Y0tLtC83ZistXatWVus2-1">
                    <mxGeometry x="335" y="550" width="130" height="50" as="geometry"/>
                </mxCell>
                <mxCell id="Y0tLtC83ZistXatWVus2-12" value="Yes" style="text;html=1;strokeColor=none;fillColor=none;align=center;verticalAlign=middle;whiteSpace=wrap;rounded=0;" vertex="1" parent="Y0tLtC83ZistXatWVus2-1">
                    <mxGeometry x="410" y="150" width="40" height="20" as="geometry"/>
                </mxCell>
                <mxCell id="Y0tLtC83ZistXatWVus2-13" value="No" style="text;html=1;strokeColor=none;fillColor=none;align=center;verticalAlign=middle;whiteSpace=wrap;rounded=0;" vertex="1" parent="Y0tLtC83ZistXatWVus2-1">
                    <mxGeometry x="330" y="150" width="40" height="20" as="geometry"/>
                </mxCell>
            </root>
        </mxGraphModel>
    </diagram>
</mxfile>